<?xml version="1.0" encoding="UTF-8" standalone="no"?>
<!-- Created with Inkscape (http://www.inkscape.org/) -->

<svg
   width="22.4296mm"
   height="19.457779mm"
   viewBox="0 0 22.4296 19.457779"
   version="1.1"
   id="svg382"
   inkscape:version="1.1.2 (0a00cf5339, 2022-02-04)"
   sodipodi:docname="zs_logo.svg"
   xmlns:inkscape="http://www.inkscape.org/namespaces/inkscape"
   xmlns:sodipodi="http://sodipodi.sourceforge.net/DTD/sodipodi-0.dtd"
   xmlns="http://www.w3.org/2000/svg"
   xmlns:svg="http://www.w3.org/2000/svg">
  <sodipodi:namedview
     id="namedview384"
     pagecolor="#ffffff"
     bordercolor="#666666"
     borderopacity="1.0"
     inkscape:pageshadow="2"
     inkscape:pageopacity="0.0"
     inkscape:pagecheckerboard="0"
     inkscape:document-units="mm"
     showgrid="false"
     inkscape:zoom="7.3273246"
     inkscape:cx="47.493461"
     inkscape:cy="32.412922"
     inkscape:window-width="1920"
     inkscape:window-height="1011"
     inkscape:window-x="0"
     inkscape:window-y="0"
     inkscape:window-maximized="1"
     inkscape:current-layer="layer1" />
  <defs
     id="defs379" />
  <g
     inkscape:label="Layer 1"
     inkscape:groupmode="layer"
     id="layer1"
     transform="translate(-85.131795,-36.326362)">
    <path
       style="fill:#000000;stroke-width:0.0846667"
       d="m 100.18135,55.695855 c -0.221185,-0.0461 -0.402165,-0.117796 -0.402165,-0.159325 0,-0.04153 0.0356,-0.07551 0.0791,-0.07551 0.210215,0 1.657895,-1.081694 2.241515,-1.67484 0.82024,-0.833639 1.32148,-1.537402 1.79207,-2.51616 l 0.36638,-0.762 0.0146,0.465667 c 0.0188,0.598174 -0.002,1.305927 -0.05,1.735666 -0.0364,0.323469 -0.0252,0.312072 0.25129,-0.254 0.42974,-0.879938 0.66689,-1.670057 0.59689,-1.98874 -0.12074,-0.549731 -1.26037,-1.476509 -3.38687,-2.754304 -0.60537,-0.363758 -1.33152,-0.824665 -1.61368,-1.024237 -0.990565,-0.70064 -1.650585,-1.561515 -1.896025,-2.47303 -0.1413,-0.524737 -0.11824,-1.75228 0.0432,-2.300688 0.34586,-1.174735 1.34346,-2.1297 2.619815,-2.507852 0.78846,-0.2336 2.01535,-0.199649 2.921,0.08083 1.94504,0.602372 2.11984,0.604905 2.39881,0.03475 0.11431,-0.233608 0.20801,-0.317062 0.356,-0.317062 0.16102,0 0.2097,0.05457 0.24542,0.275166 0.0417,0.257262 0.4723,4.433179 0.47148,4.572 -1.7e-4,0.03492 -0.12419,0.06345 -0.27554,0.06338 -0.2646,-1.1e-4 -0.28108,-0.02042 -0.42939,-0.529167 -0.36416,-1.249143 -1.40892,-2.543464 -2.44118,-3.024292 -2.10018,-0.978274 -4.190245,0.0098 -4.03296,1.906506 0.0964,1.162882 0.75304,1.821436 3.62595,3.636737 2.56252,1.619169 2.99497,1.988893 3.48644,2.980721 0.32473,0.655325 0.35845,0.785281 0.3898,1.502225 0.0393,0.898665 -0.0611,1.469258 -0.37572,2.134219 -0.26225,0.554344 -1.05768,1.432172 -1.54672,1.706936 l -0.34904,0.196102 0.44952,-0.626531 c 0.51669,-0.720157 0.80078,-1.328285 0.95846,-2.051673 0.16851,-0.773068 0.12382,-1.015162 -0.0577,-0.312389 -0.25462,0.985958 -0.61257,1.571765 -1.51531,2.47989 -0.91446,0.919922 -1.63474,1.339961 -2.67068,1.55746 -0.66432,0.139476 -1.65895,0.149813 -2.26483,0.02354 z m -1.639915,-0.813871 c -0.5365,-0.388636 -1.36659,-1.18842 -1.56256,-1.505504 -0.15366,-0.248626 -0.17252,-0.366259 -0.12269,-0.765122 0.0635,-0.507985 -0.0646,-0.581656 -0.17072,-0.09824 l -0.0588,0.26748 -0.15846,-0.204951 c -0.25745,-0.332988 -0.51404,-1.106048 -0.51129,-1.540462 0.001,-0.23219 -0.0314,-0.383182 -0.0773,-0.354836 -0.0468,0.02893 -0.0798,-0.174072 -0.0798,-0.490822 0,-0.419093 -0.0736,-0.738073 -0.32831,-1.423164 -0.48931,-1.316035 -0.49651,-1.48913 -0.0275,-0.660646 1.27936,2.259729 2.95417,4.066641 4.45347,4.804746 0.685195,0.337321 0.830175,0.340983 0.221655,0.0056 -1.163235,-0.641114 -2.378015,-1.789777 -3.281695,-3.1031 l -0.45387,-0.6596 0.43907,-0.02598 c 0.28846,-0.01707 0.64573,0.04067 1.0416,0.168343 l 0.60254,0.194325 -0.42334,0.0317 -0.42333,0.0317 0.54815,0.116013 c 0.66492,0.140725 1.71863,0.635428 2.556565,1.200274 0.77965,0.52555 1.16513,0.720852 1.80595,0.914977 0.2794,0.08464 0.52215,0.163665 0.53945,0.175612 0.0173,0.01195 -0.0746,0.204419 -0.20422,0.427715 -0.78265,1.34824 -1.91532,2.287583 -3.144435,2.607727 -0.66968,0.174431 -0.79965,0.161901 -1.18021,-0.113776 z m -13.40958,-2.334657 c 0,-0.135232 1.8187,-2.738976 5.37633,-7.69702 2.95698,-4.12096 5.37633,-7.515147 5.37633,-7.542636 0,-0.08976 -5.89389,-0.05283 -6.56965,0.04116 -0.90224,0.125489 -1.47595,0.359245 -1.96843,0.802026 -0.44986,0.404467 -0.74361,0.999908 -0.94819,1.922005 l -0.10801,0.486833 h -0.32903 c -0.324,0 -0.32834,-0.0042 -0.28402,-0.275166 0.0247,-0.151342 0.12259,-0.960967 0.21743,-1.799167 0.0948,-0.8382 0.19397,-1.666875 0.22028,-1.8415 l 0.0478,-0.3175 h 6.5215 6.5215 l -0.0369,0.232833 c -0.0209,0.131773 -2.34025,3.476901 -5.34361,7.706849 -2.9187,4.110709 -5.30673,7.49322 -5.30673,7.516693 0,0.02347 1.627,0.03917 3.61556,0.03487 l 3.61555,-0.0078 0.23814,0.470944 0.23813,0.470946 h -5.54702 -5.54702 z"
       id="path345" />
  </g>
</svg>
